<?xml version="1.0" encoding="UTF-8"?>
<svg version="1.1" xmlns="http://www.w3.org/2000/svg" width="512" height="512">
<path d="M0 0 C0.79686218 0.00182281 1.59372437 0.00364563 2.41473389 0.00552368 C13.98460984 0.05012266 25.04292021 0.48941335 36.3125 3.3125 C37.02889648 3.47878906 37.74529297 3.64507813 38.48339844 3.81640625 C50.4013084 6.59879768 61.33295108 10.94812313 72.3125 16.3125 C73.47652344 16.8796875 74.64054687 17.446875 75.83984375 18.03125 C105.67763495 33.36606633 129.46761739 58.6116439 144.5625 88.375 C144.90603516 89.04595703 145.24957031 89.71691406 145.60351562 90.40820312 C147.17564423 93.58643561 148.33309082 96.39643298 149.18359375 99.86328125 C150.29558356 104.39104838 151.28031816 107.92216569 155.28515625 110.66210938 C160.5312283 113.51849621 166.05343019 115.74953778 171.54980469 118.07226562 C189.7261611 126.23202973 206.06899334 139.57841775 220.3125 153.3125 C221.16199219 154.09882813 222.01148438 154.88515625 222.88671875 155.6953125 C241.27819596 173.19175706 255.73289108 198.83768632 256.6484375 224.59765625 C257.13174954 261.03831589 243.22294907 287.39451684 218.26953125 313.4453125 C215.71670361 316.04885857 213.30899378 318.3149979 210.32421875 320.44140625 C206.43374543 323.66370297 205.39797067 327.61264299 203.9375 332.3125 C199.50601249 345.34313908 192.57939268 357.81425578 182.25390625 367.1796875 C178.94582915 370.28142579 177.43585456 372.14262126 176.94921875 376.7578125 C176.98345999 379.36541487 177.05859823 381.9727592 177.171875 384.578125 C177.61394465 396.31753022 173.29840155 407.10726574 165.98046875 416.21484375 C156.08588128 426.57689204 145.34126919 432.23956105 131.03417969 432.71484375 C117.81263164 432.88964203 108.28089655 429.82510038 97.3125 422.3125 C96.6525 421.6525 95.9925 420.9925 95.3125 420.3125 C88.86699586 420.7410342 82.61790951 422.67693161 76.375 424.25 C66.70281035 426.63992441 57.24139096 428.45426501 47.3125 429.3125 C47.16554688 429.85777344 47.01859375 430.40304687 46.8671875 430.96484375 C43.07250646 443.72282311 34.45122034 453.64301903 22.84375 460.05859375 C11.88617551 465.48665148 -1.128642 466.05981011 -13.07421875 463.62109375 C-15.76469369 462.70379915 -18.176841 461.64191452 -20.6875 460.3125 C-21.55632812 459.86519531 -22.42515625 459.41789062 -23.3203125 458.95703125 C-34.16276724 452.92085868 -41.57222079 444.0980414 -45.6875 432.3125 C-45.6875 431.3225 -45.6875 430.3325 -45.6875 429.3125 C-46.34161865 429.26786621 -46.9957373 429.22323242 -47.66967773 429.17724609 C-54.83665619 428.61634662 -61.72672664 427.44730157 -68.75 425.9375 C-69.76126953 425.72867187 -70.77253906 425.51984375 -71.81445312 425.3046875 C-77.48699586 424.1066231 -82.955431 422.69189555 -88.43139648 420.77880859 C-91.16829462 420.21312572 -93.01428034 420.54915836 -95.6875 421.3125 C-97.99743426 422.79190596 -97.99743426 422.79190596 -100.25 424.625 C-111.70162341 432.77359294 -124.01472691 433.69731032 -137.6875 432.3125 C-141.71335083 431.48405902 -145.06366123 430.23135233 -148.6875 428.3125 C-149.55632812 427.86519531 -150.42515625 427.41789062 -151.3203125 426.95703125 C-163.47965323 420.18772663 -170.75156174 410.01720217 -175.05078125 396.84765625 C-175.71540816 393.15754977 -175.62021563 390.01958558 -175.39477539 386.30297852 C-174.71163435 378.15599356 -174.71163435 378.15599356 -177.8046875 370.8828125 C-180.1005085 368.31716311 -182.65290011 366.03641162 -185.21240234 363.73828125 C-194.25906381 354.99407355 -201.24508555 341.25266352 -204.3125 329.1875 C-206.62281497 321.67647602 -212.27602253 317.54840432 -218.09814453 312.65722656 C-237.91527287 295.89029217 -251.91869347 270.97837239 -255.6875 245.3125 C-257.45302992 214.13217168 -249.66020352 186.85584778 -228.9140625 163.07421875 C-226.23891869 160.08760809 -223.47036501 157.19874038 -220.6875 154.3125 C-219.99527344 153.55710938 -219.30304688 152.80171875 -218.58984375 152.0234375 C-202.5827391 135.06022448 -177.42461224 117.64124795 -155.08203125 110.47705078 C-152.02349849 108.98957104 -151.58302853 107.81492538 -150.36328125 104.68359375 C-149.97986572 103.7392749 -149.5964502 102.79495605 -149.20141602 101.82202148 C-148.80494873 100.80825439 -148.40848145 99.7944873 -148 98.75 C-140.13921053 79.75223163 -129.87894459 62.4188414 -114.6875 48.3125 C-113.8625 47.4875 -113.0375 46.6625 -112.1875 45.8125 C-111.3625 44.9875 -110.5375 44.1625 -109.6875 43.3125 C-109.19733398 42.79985596 -108.70716797 42.28721191 -108.20214844 41.7590332 C-87.99291531 20.90298539 -58.9434217 7.79040061 -30.6875 2.3125 C-29.7812085 2.13517334 -28.87491699 1.95784668 -27.94116211 1.77514648 C-18.60553083 0.13617754 -9.44601339 -0.04478703 0 0 Z " fill="#314B59" transform="translate(255.6875,23.6875)"/>
<path d="M0 0 C0.79686218 0.00182281 1.59372437 0.00364563 2.41473389 0.00552368 C13.98460984 0.05012266 25.04292021 0.48941335 36.3125 3.3125 C37.02889648 3.47878906 37.74529297 3.64507813 38.48339844 3.81640625 C50.4013084 6.59879768 61.33295108 10.94812313 72.3125 16.3125 C73.47652344 16.8796875 74.64054688 17.446875 75.83984375 18.03125 C108.75423663 34.94725313 132.86872749 63.13733451 148.3125 96.3125 C148.91191406 97.58287109 148.91191406 97.58287109 149.5234375 98.87890625 C151.84244507 104.21262366 153.35946346 109.77185136 154.875 115.375 C155.17216919 116.46228394 155.17216919 116.46228394 155.4753418 117.5715332 C158.94246254 130.9230271 160.8224095 143.94424833 160.70361328 157.72460938 C160.68744808 159.9446297 160.70362795 162.16284444 160.72265625 164.3828125 C160.73699872 174.05177035 159.61605707 182.91153535 157.3125 192.3125 C157.02246094 193.49851807 157.02246094 193.49851807 156.7265625 194.70849609 C148.98513304 224.0808182 130.62297926 248.45458219 104.45703125 263.9375 C103.07780774 264.73314417 101.69635327 265.52493586 100.3125 266.3125 C99.68778809 266.67085938 99.06307617 267.02921875 98.41943359 267.3984375 C68.2936396 284.36263163 33.40713308 288.76292464 -0.625 288.6875 C-2.0242421 288.68668427 -2.0242421 288.68668427 -3.45175171 288.68585205 C-49.50124138 288.5631568 -95.71743533 277.19594599 -129.22167969 243.83544922 C-153.50591294 218.60476184 -160.24636237 185.94616108 -159.8984375 151.92578125 C-159.69612849 143.18028756 -158.60277369 134.8392846 -156.6875 126.3125 C-156.49414062 125.44705566 -156.30078125 124.58161133 -156.1015625 123.68994141 C-149.60081767 95.61535129 -136.01569174 68.15267836 -114.6875 48.3125 C-113.8625 47.4875 -113.0375 46.6625 -112.1875 45.8125 C-111.3625 44.9875 -110.5375 44.1625 -109.6875 43.3125 C-109.19733398 42.79985596 -108.70716797 42.28721191 -108.20214844 41.7590332 C-87.99291531 20.90298539 -58.9434217 7.79040061 -30.6875 2.3125 C-29.7812085 2.13517334 -28.87491699 1.95784668 -27.94116211 1.77514648 C-18.60553083 0.13617754 -9.44601339 -0.04478703 0 0 Z " fill="#3DB39E" transform="translate(255.6875,23.6875)"/>
<path d="M0 0 C0.79686218 0.00182281 1.59372437 0.00364563 2.41473389 0.00552368 C13.98460984 0.05012266 25.04292021 0.48941335 36.3125 3.3125 C37.02889648 3.47878906 37.74529297 3.64507813 38.48339844 3.81640625 C50.4013084 6.59879768 61.33295108 10.94812313 72.3125 16.3125 C73.47652344 16.8796875 74.64054688 17.446875 75.83984375 18.03125 C108.75423663 34.94725313 132.86872749 63.13733451 148.3125 96.3125 C148.91191406 97.58287109 148.91191406 97.58287109 149.5234375 98.87890625 C151.84244507 104.21262366 153.35946346 109.77185136 154.875 115.375 C155.17216919 116.46228394 155.17216919 116.46228394 155.4753418 117.5715332 C158.94246254 130.9230271 160.8224095 143.94424833 160.70361328 157.72460938 C160.68744808 159.9446297 160.70362795 162.16284444 160.72265625 164.3828125 C160.73699872 174.05177035 159.61605707 182.91153535 157.3125 192.3125 C157.02246094 193.49851807 157.02246094 193.49851807 156.7265625 194.70849609 C148.59299928 225.56864149 129.15103687 249.07102556 102.06079102 265.43969727 C100.1686423 266.38431836 98.36494942 266.82895007 96.3125 267.3125 C96.30891747 266.4315257 96.30891747 266.4315257 96.30526257 265.53275394 C96.24582426 251.16458849 96.17009373 236.79657487 96.07678509 222.42858982 C96.03204218 215.47999665 95.99257968 208.53145229 95.96606445 201.58276367 C95.94041602 194.86528538 95.89936969 188.14805596 95.84931374 181.43070793 C95.83274786 178.87977791 95.82117009 176.32881001 95.81488609 173.77783394 C95.73647842 144.84972454 91.85083207 120.03059984 72.3125 97.3125 C71.15041016 95.85263672 71.15041016 95.85263672 69.96484375 94.36328125 C56.98240189 78.81540242 33.9157829 68.08022056 14.17578125 65.59765625 C-13.82674906 63.53073541 -38.15691534 68.38800557 -60.33203125 86.46875 C-62.86514039 88.67889745 -65.29083908 90.95538794 -67.6875 93.3125 C-68.44804687 94.06015625 -69.20859375 94.8078125 -69.9921875 95.578125 C-80.35099243 106.40289694 -87.69319086 119.88764333 -91.6875 134.3125 C-91.93966782 135.22185806 -92.19183563 136.13121613 -92.4516449 137.06813049 C-95.53547772 150.1076403 -95.16680424 163.25861693 -95.19921875 176.58984375 C-95.21608995 179.21400276 -95.23424343 181.8381538 -95.25361633 184.46229553 C-95.2969727 190.62414784 -95.32570771 196.78597434 -95.34893972 202.94793183 C-95.37615884 209.97361556 -95.42005858 216.99916579 -95.46522844 224.02475345 C-95.55763152 238.45392367 -95.62951312 252.88315086 -95.6875 267.3125 C-118.1724998 260.135858 -136.65298924 238.23167469 -147.40625 218.09375 C-161.03880056 189.99400294 -163.49648082 156.62603326 -156.6875 126.3125 C-156.49414062 125.44705566 -156.30078125 124.58161133 -156.1015625 123.68994141 C-149.60081767 95.61535129 -136.01569174 68.15267836 -114.6875 48.3125 C-113.8625 47.4875 -113.0375 46.6625 -112.1875 45.8125 C-111.3625 44.9875 -110.5375 44.1625 -109.6875 43.3125 C-109.19733398 42.79985596 -108.70716797 42.28721191 -108.20214844 41.7590332 C-87.99291531 20.90298539 -58.9434217 7.79040061 -30.6875 2.3125 C-29.7812085 2.13517334 -28.87491699 1.95784668 -27.94116211 1.77514648 C-18.60553083 0.13617754 -9.44601339 -0.04478703 0 0 Z " fill="#E3E6E6" transform="translate(255.6875,23.6875)"/>
<path d="M0 0 C4.22606676 2.25390227 8.00227346 4.72029026 11.8125 7.625 C19.41167823 13.22549026 27.67588336 17.58178706 36 22 C36.6506543 22.350625 37.30130859 22.70125 37.97167969 23.0625 C101.03261903 56.88879748 183.42295183 67.94597887 254 58 C255.15999512 57.83870605 256.31999023 57.67741211 257.51513672 57.51123047 C275.55144819 54.93461454 293.34386841 51.52564206 311 47 C311.92989746 46.76168457 312.85979492 46.52336914 313.81787109 46.27783203 C346.7471742 37.68116573 380.00787635 23.96646862 406.78515625 2.64453125 C409 1 409 1 412 0 C408.99784477 16.37539215 400.34582907 32.59470084 387.9375 43.875 C384.62811357 46.97087763 383.12295505 48.83391014 382.63671875 53.4453125 C382.67095999 56.05291487 382.74609823 58.6602592 382.859375 61.265625 C383.30144465 73.00503022 378.98590155 83.79476574 371.66796875 92.90234375 C361.77338128 103.26439204 351.02876919 108.92706105 336.72167969 109.40234375 C323.50013164 109.57714203 313.96839655 106.51260038 303 99 C302.34 98.34 301.68 97.68 301 97 C294.55449586 97.4285342 288.30540951 99.36443161 282.0625 100.9375 C272.39031035 103.32742441 262.92889096 105.14176501 253 106 C252.85304688 106.54527344 252.70609375 107.09054687 252.5546875 107.65234375 C248.76000646 120.41032311 240.13872034 130.33051903 228.53125 136.74609375 C217.57367551 142.17415148 204.558858 142.74731011 192.61328125 140.30859375 C189.92280631 139.39129915 187.510659 138.32941452 185 137 C184.13117188 136.55269531 183.26234375 136.10539063 182.3671875 135.64453125 C171.52473276 129.60835868 164.11527921 120.7855414 160 109 C160 108.01 160 107.02 160 106 C159.01882202 105.93304932 159.01882202 105.93304932 158.01782227 105.86474609 C150.85084381 105.30384662 143.96077336 104.13480157 136.9375 102.625 C135.92623047 102.41617188 134.91496094 102.20734375 133.87304688 101.9921875 C128.20050414 100.7941231 122.732069 99.37939555 117.25610352 97.46630859 C114.51920538 96.90062572 112.67321966 97.23665836 110 98 C107.69006574 99.47940596 107.69006574 99.47940596 105.4375 101.3125 C93.98587659 109.46109294 81.67277309 110.38481032 68 109 C63.97414917 108.17155902 60.62383877 106.91885233 57 105 C56.13117188 104.55269531 55.26234375 104.10539062 54.3671875 103.64453125 C42.20784677 96.87522663 34.93593826 86.70470217 30.63671875 73.53515625 C29.97209184 69.84504977 30.06728437 66.70708558 30.29272461 62.99047852 C30.97586565 54.84349356 30.97586565 54.84349356 27.8828125 47.5703125 C25.5869915 45.00466311 23.03459989 42.72391162 20.47509766 40.42578125 C10.72541661 31.00205777 3.60217506 15.92545168 0 3 C0 2.01 0 1.02 0 0 Z " fill="#CA4E44" transform="translate(50,347)"/>
<path d="M0 0 C0 21.12 0 42.24 0 64 C-9.405 64.99 -9.405 64.99 -19 66 C-45.94460779 72.99325698 -68.49331894 87.89480754 -82.92919922 112.10351562 C-91.48345609 127.25387299 -95.11347793 143.42072186 -95.20532227 160.62670898 C-95.21522186 161.7786525 -95.22512146 162.93059601 -95.23532104 164.1174469 C-95.26681063 167.91030855 -95.29164382 171.70318271 -95.31640625 175.49609375 C-95.3369866 178.1316815 -95.35798336 180.76726603 -95.37937927 183.40284729 C-95.42916377 189.62163353 -95.47415503 195.84044473 -95.51740164 202.0592795 C-95.56689626 209.14277061 -95.62176879 216.22621691 -95.67708123 223.30966461 C-95.79068242 237.87306727 -95.89756851 252.43651454 -96 267 C-118.4849998 259.823358 -136.96548924 237.91917469 -147.71875 217.78125 C-161.35130056 189.68150294 -163.80898082 156.31353326 -157 126 C-156.80664062 125.13455566 -156.61328125 124.26911133 -156.4140625 123.37744141 C-149.91331767 95.30285129 -136.32819174 67.84017836 -115 48 C-114.175 47.175 -113.35 46.35 -112.5 45.5 C-111.675 44.675 -110.85 43.85 -110 43 C-109.50983398 42.48735596 -109.01966797 41.97471191 -108.51464844 41.4465332 C-80.45188443 12.48559519 -39.24076985 0 0 0 Z " fill="#D7DADA" transform="translate(256,24)"/>
<path d="M0 0 C0 21.12 0 42.24 0 64 C-6.435 64.99 -6.435 64.99 -13 66 C-15.98895945 67.09332991 -18.49529649 68.09098108 -21.25 69.5625 C-21.92474365 69.91618652 -22.5994873 70.26987305 -23.29467773 70.63427734 C-35.50900892 77.32549161 -41.82817554 87.49509936 -46.171875 100.51171875 C-49.25935523 113.51700104 -46.50076002 127.0284491 -39.765625 138.40625 C-34.79903602 145.70230106 -29.00556094 150.39285353 -21.25 154.4375 C-20.63141113 154.7677417 -20.01282227 155.0979834 -19.37548828 155.43823242 C-12.7776907 158.63993227 -7.87990195 158.78770739 0 160 C0 181.12 0 202.24 0 224 C-26.8321737 224 -26.8321737 224 -37.0625 222.375 C-38.23167969 222.19678711 -39.40085938 222.01857422 -40.60546875 221.83496094 C-83.96351997 214.85658178 -83.96351997 214.85658178 -97 203 C-97.48495388 200.82990646 -97.48495388 200.82990646 -97.46324158 198.26043701 C-97.46466156 197.28512024 -97.46608154 196.30980347 -97.46754456 195.30493164 C-97.44852585 194.235896 -97.42950714 193.16686035 -97.40991211 192.06542969 C-97.40556152 190.93816467 -97.40121094 189.81089966 -97.39672852 188.6494751 C-97.37688905 184.90650308 -97.32775503 181.16455105 -97.27734375 177.421875 C-97.25504914 174.81651913 -97.23411803 172.21115127 -97.2144928 169.60577393 C-97.17015064 164.13117674 -97.10961767 158.65693873 -97.03930664 153.18261719 C-96.95865304 146.8896393 -96.90207018 140.59681149 -96.85910028 134.30347133 C-96.81710203 128.2234212 -96.75848261 122.14365653 -96.69256783 116.06381989 C-96.66598451 113.49170897 -96.64327459 110.91955479 -96.62464714 108.34737396 C-96.37190618 76.56367561 -90.17560176 49.87890131 -67 27 C-66.18660156 26.18789062 -65.37320313 25.37578125 -64.53515625 24.5390625 C-52.45658165 13.06735307 -37.5211463 5.64409462 -21.4375 1.625 C-20.46635254 1.37314941 -20.46635254 1.37314941 -19.47558594 1.11621094 C-12.71847551 -0.42722376 -7.35788141 0 0 0 Z " fill="#3AAA96" transform="translate(256,88)"/>
<path d="M0 0 C0.66 0 1.32 0 2 0 C-1.01541443 16.44771505 -9.40156156 29.36178273 -20 42 C-20.5878125 42.72316406 -21.175625 43.44632812 -21.78125 44.19140625 C-25.13395216 48.20702906 -28.57415224 51.40982244 -32.8359375 54.4375 C-35.281845 56.20349819 -37.60176808 58.0909188 -39.9375 60 C-45.79530051 64.68624041 -51.50433006 69.15791711 -58.546875 71.890625 C-59.42214844 72.2319043 -60.29742187 72.57318359 -61.19921875 72.92480469 C-62.12347656 73.27961914 -63.04773438 73.63443359 -64 74 C-65.40185547 74.54382324 -65.40185547 74.54382324 -66.83203125 75.09863281 C-78.42360504 79.57223144 -89.93341443 83.98335361 -102 87 C-103.08087891 87.28520508 -103.08087891 87.28520508 -104.18359375 87.57617188 C-128.16772011 93.89711158 -152.69932767 97.22896707 -177.5 97.25 C-178.22599396 97.25067474 -178.95198792 97.25134949 -179.69998169 97.25204468 C-229.4256308 97.1799873 -277.79112592 88.57008984 -322 65 C-323.15371094 64.39929688 -324.30742187 63.79859375 -325.49609375 63.1796875 C-342.55739072 53.92282036 -358.6967236 41.03267219 -371 26 C-370.34 25.67 -369.68 25.34 -369 25 C-366.95410156 25.73754883 -366.95410156 25.73754883 -364.390625 26.95703125 C-363.42374756 27.4053833 -362.45687012 27.85373535 -361.46069336 28.31567383 C-360.40116455 28.80962646 -359.34163574 29.3035791 -358.25 29.8125 C-296.99885478 57.50700061 -222.59464262 67.38476354 -156 58 C-154.84000488 57.83870605 -153.68000977 57.67741211 -152.48486328 57.51123047 C-134.44855181 54.93461454 -116.65613159 51.52564206 -99 47 C-98.07010254 46.76168457 -97.14020508 46.52336914 -96.18212891 46.27783203 C-63.80182666 37.82449027 -24.20445563 24.20445563 0 0 Z " fill="#E1564B" transform="translate(460,347)"/>
<path d="M0 0 C10.18375694 7.50822145 17.50411194 17.37993469 20.00390625 29.87890625 C21.44688044 44.78963955 19.5528443 57.92050819 9.984375 69.8515625 C9.45457031 70.47933594 8.92476563 71.10710937 8.37890625 71.75390625 C7.90066406 72.35074219 7.42242187 72.94757813 6.9296875 73.5625 C-1.00081686 82.53176059 -13.43594551 87.17774498 -25.1171875 88 C-39.68601985 88.48416059 -51.54796152 83.56774851 -62.30859375 73.75390625 C-72.45247037 63.10643291 -76.18140468 49.70102215 -75.93359375 35.3125 C-74.83866611 22.84401149 -68.39481037 11.51622034 -59.4609375 2.93359375 C-41.37061564 -10.95141257 -19.31167587 -12.36815196 0 0 Z " fill="#F0F1F1" transform="translate(283.62109375,160.24609375)"/>
<path d="M0 0 C13.6428096 0 24.84376262 4.87297731 34.75 14.25 C44.97880877 24.98572319 48.31611616 36.39958055 48.15234375 51.01171875 C47.58348354 62.17013065 43.14020481 71.53946534 36 80 C35.52175781 80.59683594 35.04351562 81.19367188 34.55078125 81.80859375 C27.77234986 89.47488013 16.18987764 95.05434848 6 96 C4.02 96 2.04 96 0 96 C0 88.08 0 80.16 0 72 C2.041875 71.443125 4.08375 70.88625 6.1875 70.3125 C11.57089772 68.65831807 14.63581723 67.48557702 18 63 C18.556875 62.34 19.11375 61.68 19.6875 61 C23.46913563 55.2375076 23.60117587 49.69747498 23 43 C21.35644118 35.38570014 17.14594495 31.60945871 11 27 C7.37 26.01 3.74 25.02 0 24 C0 16.08 0 8.16 0 0 Z " fill="#FDFDFD" transform="translate(256,152)"/>
<path d="M0 0 C1.12664062 0.144375 2.25328125 0.28875 3.4140625 0.4375 C17.70618174 2.05346842 31.94582943 2.22471517 46.3125 2.25 C47.29510803 2.25499512 48.27771606 2.25999023 49.2901001 2.26513672 C60.73685443 2.31277694 71.91984337 1.92712344 83.27416992 0.42871094 C86.56265291 0.05032314 89.69519343 -0.08124195 93 0 C89.62803772 12.51175478 82.06181478 22.35270878 71.125 29.3125 C59.30637719 35.84478098 45.84418448 37.0097124 32.61328125 34.30859375 C29.92280631 33.39129915 27.510659 32.32941452 25 31 C23.69675781 30.32904297 23.69675781 30.32904297 22.3671875 29.64453125 C11.52473276 23.60835868 4.11527921 14.7855414 0 3 C0 2.01 0 1.02 0 0 Z " fill="#324C5A" transform="translate(210,453)"/>
<path d="M0 0 C2.45322431 14.71934586 -0.0358526 27.29563917 -8 40 C-15.54858908 49.3946427 -25.85227564 57.18309685 -38 59 C-48.72881079 59.87258787 -59.27761102 60.16205018 -69 55 C-69.91523438 54.51789063 -70.83046875 54.03578125 -71.7734375 53.5390625 C-76.12319307 51.08375635 -79.07178994 49.06858288 -82 45 C-81.38294189 44.77973145 -80.76588379 44.55946289 -80.13012695 44.33251953 C-52.49766243 34.3990303 -27.78944257 22.60811865 -5.30566406 3.56494141 C-1.09289323 0 -1.09289323 0 0 0 Z " fill="#324C5A" transform="translate(432,397)"/>
<path d="M0 0 C3.82012446 2.37467196 7.16184402 4.99170883 10.5625 7.9375 C31.19467016 24.91227599 55.94518247 35.44646594 81 44 C75.25935045 51.73283844 66.52356439 56.57558555 57 58 C46.26356941 58.8732076 35.73261355 59.15349865 26 54 C24.69675781 53.32904297 24.69675781 53.32904297 23.3671875 52.64453125 C11.24601209 45.89647389 3.8415882 35.71033185 -0.31640625 22.51171875 C-1.69386113 15.43553625 -1.4729137 8.17123231 -1 1 C-0.67 0.67 -0.34 0.34 0 0 Z " fill="#324D5A" transform="translate(81,398)"/>
<path d="M0 0 C5.08218541 3.15198166 9.68798073 8.28089963 11.5234375 14.0546875 C12.8362111 20.91861802 12.6802995 27.36811765 9.140625 33.484375 C5.02109448 39.33704134 -0.09162227 43.55063345 -7.06640625 45.19921875 C-14.21162308 45.93234207 -20.22814539 45.65817562 -26.06640625 41.19921875 C-32.45092398 35.22294727 -35.97909707 30.22498254 -36.44140625 21.38671875 C-36.25597996 14.12237112 -33.6795011 8.61590511 -28.75390625 3.32421875 C-20.43089999 -4.25974678 -9.90291091 -5.03089057 0 0 Z " fill="#324C5A" transform="translate(268.06640625,178.80078125)"/>
</svg>
