<?xml version="1.0" encoding="UTF-8"?>
<svg version="1.1" xmlns="http://www.w3.org/2000/svg" width="512" height="512">
<path d="M0 0 C2.30582442 0.00315136 4.61034924 -0.02036856 6.91601562 -0.0456543 C21.01295193 -0.10656866 34.46260952 2.04800167 48.00976562 6.00317383 C49.32315918 6.38554199 49.32315918 6.38554199 50.66308594 6.77563477 C90.6543328 18.87273402 123.87976762 47.10038866 144.12768555 83.42016602 C146.21865263 87.32872136 147.95307568 91.20368685 149.40429688 95.39379883 C152.91070372 105.9940881 152.91070372 105.9940881 161.07299805 113.06591797 C163.84569149 114.32635256 166.6490838 115.45445533 169.50390625 116.51489258 C172.7576363 117.77459921 175.8120621 119.35749833 178.88476562 121.00317383 C179.48804688 121.32406982 180.09132813 121.64496582 180.71289062 121.97558594 C194.83112692 129.68362823 207.78963496 139.40261 219.57226562 150.31567383 C220.09369141 150.79327148 220.61511719 151.27086914 221.15234375 151.76293945 C229.46622943 159.45250331 236.25585625 167.93070029 242.57226562 177.31567383 C243.23097656 178.29020508 243.8896875 179.26473633 244.56835938 180.26879883 C257.89591017 201.52164152 262.43333508 228.09117107 257.3918457 252.6640625 C250.65619501 280.41416503 232.16092974 305.98018741 209.57226562 323.31567383 C208.91226562 323.31567383 208.25226563 323.31567383 207.57226562 323.31567383 C207.51039063 324.22317383 207.44851563 325.13067383 207.38476562 326.06567383 C205.13725186 341.22120587 195.03579137 355.27674633 185.08789062 366.47583008 C184.25773437 367.41297852 183.42757813 368.35012695 182.57226562 369.31567383 C181.80269531 370.06719727 181.033125 370.8187207 180.24023438 371.59301758 C177.75675107 375.64685333 178.35293192 379.18276138 178.63476562 383.81567383 C178.89854478 392.64428212 177.8016898 399.40653844 173.57226562 407.31567383 C173.13785156 408.13165039 172.7034375 408.94762695 172.25585938 409.78833008 C166.22146523 419.81126964 157.43194883 426.31558342 146.57226562 430.31567383 C145.67378906 430.68047852 144.7753125 431.0452832 143.84960938 431.42114258 C131.38213208 434.82406546 117.92729301 432.8708487 106.76367188 426.78442383 C100.30080098 423.04420918 100.30080098 423.04420918 97.57226562 420.31567383 C90.72430004 420.70404225 84.19789787 422.57048954 77.57226562 424.25317383 C67.91966058 426.64806915 58.48343991 428.45897024 48.57226562 429.31567383 C48.44851563 430.21801758 48.32476562 431.12036133 48.19726562 432.05004883 C46.34163037 441.74574304 38.85960979 450.32667589 31.15429688 456.13989258 C28.68377946 457.69918576 26.19727764 459.03518016 23.57226562 460.31567383 C22.78851563 460.72817383 22.00476563 461.14067383 21.19726562 461.56567383 C10.4958416 466.38131464 -3.69045116 466.157487 -14.61523438 462.19067383 C-16.58010685 461.2897936 -18.52160602 460.33497934 -20.42773438 459.31567383 C-21.24371094 458.88125977 -22.0596875 458.4468457 -22.90039062 457.99926758 C-32.71896465 452.08791341 -39.83042465 443.17991074 -43.42773438 432.31567383 C-43.42773438 431.32567383 -43.42773438 430.33567383 -43.42773438 429.31567383 C-44.08185303 429.27104004 -44.73597168 429.22640625 -45.40991211 429.18041992 C-52.57689057 428.61952045 -59.46696101 427.4504754 -66.49023438 425.94067383 C-67.50150391 425.7318457 -68.51277344 425.52301758 -69.5546875 425.30786133 C-75.22723024 424.10979693 -80.69566538 422.69506938 -86.17163086 420.78198242 C-89.74047755 420.04434611 -92.44295319 420.72188183 -95.53320312 422.58520508 C-96.22027344 423.09438477 -96.90734375 423.60356445 -97.61523438 424.12817383 C-109.28524378 432.26003968 -121.56656441 433.57652128 -135.42773438 432.31567383 C-140.13713987 431.21980415 -144.17194689 429.59146373 -148.42773438 427.31567383 C-149.24371094 426.88125977 -150.0596875 426.4468457 -150.90039062 425.99926758 C-160.92333019 419.96487343 -167.42764396 411.17535703 -171.42773438 400.31567383 C-171.80027344 399.43911133 -172.1728125 398.56254883 -172.55664062 397.65942383 C-173.56191902 393.80059735 -173.50718168 390.43795843 -173.44970703 386.47290039 C-173.2537489 377.32576242 -173.2537489 377.32576242 -176.46679688 369.00317383 C-179.01349692 366.60265898 -181.68234403 364.48265849 -184.42773438 362.31567383 C-187.02344703 359.14425837 -189.21963541 355.76446207 -191.42773438 352.31567383 C-191.92789063 351.59508789 -192.42804688 350.87450195 -192.94335938 350.13208008 C-195.52522734 346.2117174 -197.4544311 342.43828111 -198.83007812 337.95239258 C-202.65677845 325.60463872 -207.70313631 319.09185618 -217.59130859 310.88598633 C-236.57698541 294.65149108 -249.7865986 269.9061212 -253.42773438 245.31567383 C-254.1841807 231.95637328 -254.55740659 218.15832871 -250.42773438 205.31567383 C-250.234375 204.69611816 -250.04101562 204.0765625 -249.84179688 203.43823242 C-236.31838497 161.00017977 -199.1299819 134.73967911 -161.75390625 114.46166992 C-159.42773437 113.31567383 -159.42773437 113.31567383 -156.9921875 112.45483398 C-153.56734841 111.2355969 -151.14058755 110.34170155 -149.0234375 107.29443359 C-147.83182941 104.75607087 -146.86000424 102.2100841 -145.92773438 99.56567383 C-145.17923783 97.65677844 -144.42394256 95.75053589 -143.66210938 93.84692383 C-143.29021484 92.9059082 -142.91832031 91.96489258 -142.53515625 90.99536133 C-127.79112822 55.31845399 -94.95802294 26.89004285 -60.00927734 12.03222656 C-40.59117745 4.09975021 -20.97682017 -0.05964344 0 0 Z " fill="#324D5B" transform="translate(253.427734375,23.684326171875)"/>
<path d="M0 0 C2.30582442 0.00315136 4.61034924 -0.02036856 6.91601562 -0.0456543 C21.01295193 -0.10656866 34.46260952 2.04800167 48.00976562 6.00317383 C48.88536133 6.25808594 49.76095703 6.51299805 50.66308594 6.77563477 C90.40472361 18.79722882 124.45329897 47.10460131 144.17163086 83.58056641 C150.39532368 95.49441919 154.99250069 107.34541951 157.74804688 120.51098633 C158.50989104 124.27587527 158.50989104 124.27587527 159.60742188 127.72973633 C160.75802282 132.00605885 161.27781917 136.16580138 161.69726562 140.56567383 C161.78073242 141.43611328 161.86419922 142.30655273 161.95019531 143.20336914 C163.23043133 157.68309978 163.09775157 171.97879261 160.57226562 186.31567383 C160.45399414 186.99307617 160.33572266 187.67047852 160.21386719 188.3684082 C157.18732611 204.83340775 150.65551174 219.91607491 140.57226562 233.31567383 C139.87359375 234.24766602 139.17492187 235.1796582 138.45507812 236.13989258 C126.98375984 250.77500861 112.64821753 260.48166644 96.57226562 269.31567383 C95.87617188 269.70625977 95.18007813 270.0968457 94.46289062 270.49926758 C67.64355369 284.79895829 35.52917226 288.5037788 5.62084961 288.50097656 C3.03872841 288.50314946 0.45704534 288.52133196 -2.125 288.5402832 C-17.69221852 288.59416345 -33.05908329 287.4158336 -48.30273438 284.12817383 C-49.30175781 283.91459229 -50.30078125 283.70101074 -51.33007812 283.48095703 C-86.54591642 275.631409 -119.54056256 258.13085879 -139.75732422 227.38891602 C-158.90228427 197.03550653 -161.37214369 158.84589073 -153.80444336 124.375 C-144.04415346 82.56962896 -119.37067703 47.35051907 -83.21337891 23.87817383 C-58.02754668 8.41032954 -29.53304224 -0.08397137 0 0 Z " fill="#3DB39E" transform="translate(253.427734375,23.684326171875)"/>
<path d="M0 0 C2.30582442 0.00315136 4.61034924 -0.02036856 6.91601562 -0.0456543 C21.01295193 -0.10656866 34.46260952 2.04800167 48.00976562 6.00317383 C48.88536133 6.25808594 49.76095703 6.51299805 50.66308594 6.77563477 C90.40472361 18.79722882 124.45329897 47.10460131 144.17163086 83.58056641 C150.39532368 95.49441919 154.99250069 107.34541951 157.74804688 120.51098633 C158.50989104 124.27587527 158.50989104 124.27587527 159.60742188 127.72973633 C160.75802282 132.00605885 161.27781917 136.16580138 161.69726562 140.56567383 C161.78073242 141.43611328 161.86419922 142.30655273 161.95019531 143.20336914 C163.23043133 157.68309978 163.09775157 171.97879261 160.57226562 186.31567383 C160.45399414 186.99307617 160.33572266 187.67047852 160.21386719 188.3684082 C157.18732611 204.83340775 150.65551174 219.91607491 140.57226562 233.31567383 C139.87359375 234.24766602 139.17492187 235.1796582 138.45507812 236.13989258 C128.64576668 248.6546191 116.73687021 257.84658821 103.07226562 265.75317383 C102.46020264 266.10782715 101.84813965 266.46248047 101.2175293 266.82788086 C96.82037066 269.31567383 96.82037066 269.31567383 94.57226562 269.31567383 C95.084254 265.39042962 95.72964429 261.57203241 96.59317017 257.70863342 C97.66019364 252.40046905 97.86817405 247.30485341 97.86279297 241.90332031 C97.86951019 240.91479568 97.87622742 239.92627106 97.88314819 238.90779114 C97.90201127 235.66739756 97.90604693 232.42721252 97.90820312 229.18676758 C97.91464076 226.91007913 97.92136982 224.63339149 97.92837524 222.35670471 C97.94032003 217.59162481 97.94405911 212.82661724 97.94287109 208.06152344 C97.94266844 201.99866605 97.96992819 195.9362802 98.00441551 189.8735342 C98.02681588 185.17104525 98.03070458 180.46866725 98.02965164 175.76613045 C98.03198951 173.53333988 98.0407088 171.30054539 98.05631638 169.06780815 C98.15946657 152.78337265 96.89719117 137.70143545 90.38476562 122.56567383 C89.94366455 121.52237915 89.94366455 121.52237915 89.49365234 120.45800781 C79.37471401 97.54467756 59.59391912 80.45229022 36.57226562 71.31567383 C11.19849845 61.72111364 -14.84499065 63.37627035 -39.41601562 74.33520508 C-61.25744253 84.70584201 -78.840703 104.60348963 -87.04710388 127.23171997 C-92.17768249 142.13662884 -93.01408745 156.08742751 -92.92382812 171.76098633 C-92.92398356 173.98762052 -92.92547988 176.21425497 -92.92823792 178.44088745 C-92.92961275 183.07847238 -92.91721636 187.71574461 -92.89428711 192.35327148 C-92.86587241 198.25802863 -92.8686615 204.16226867 -92.88137722 210.06706429 C-92.88837467 214.65538855 -92.88049947 219.24359603 -92.86812019 223.83190536 C-92.86364747 226.0077151 -92.86323173 228.18353756 -92.86718559 230.3593483 C-92.87781089 241.34486272 -92.65596689 251.746771 -90.06874084 262.45870972 C-89.42773438 265.31567383 -89.42773438 265.31567383 -89.42773438 269.31567383 C-94.49309879 267.86730842 -98.57498428 265.66369853 -102.99023438 262.87817383 C-103.68769775 262.43860352 -104.38516113 261.9990332 -105.10375977 261.54614258 C-130.50335544 245.16639649 -147.98088223 220.80184266 -154.36523438 191.25317383 C-162.69359554 151.55140206 -155.29026142 107.84894199 -133.13085938 73.71020508 C-107.62793608 35.64221296 -70.54452031 10.70201644 -25.59423828 1.75146484 C-17.04142675 0.24800438 -8.65653912 -0.02461316 0 0 Z " fill="#E3E6E6" transform="translate(253.427734375,23.684326171875)"/>
<path d="M0 0 C3.84113128 1.74510656 7.21763338 4.12828997 10.6875 6.5 C31.10483366 20.21384203 52.73195105 31.35671512 76.03417969 39.32714844 C77.71813335 39.90352403 79.39501161 40.50050035 81.0703125 41.1015625 C105.81611 49.77316675 131.78397162 54.70328 157.79003906 57.63574219 C160.21698725 57.9111458 162.6384793 58.20644577 165.06152344 58.51269531 C178.16899619 60.10439142 191.18047366 60.39945146 204.375 60.375 C205.4860611 60.37445618 206.59712219 60.37391235 207.74185181 60.37335205 C276.41231177 60.21987656 346.14283726 44.3581105 403.35644531 5.12255859 C405.88941328 3.39252492 408.44480567 1.69699076 411 0 C409.8957015 16.19637794 398.98550144 31.37344606 388.515625 43.16015625 C387.68546875 44.09730469 386.8553125 45.03445313 386 46 C385.23042969 46.75152344 384.46085937 47.50304687 383.66796875 48.27734375 C381.18448544 52.3311795 381.7806663 55.86708755 382.0625 60.5 C382.32627915 69.32860829 381.22942417 76.09086461 377 84 C376.56558594 84.81597656 376.13117188 85.63195312 375.68359375 86.47265625 C369.6491996 96.49559581 360.85968321 102.99990959 350 107 C349.10152344 107.36480469 348.20304687 107.72960937 347.27734375 108.10546875 C334.80986646 111.50839163 321.35502738 109.55517487 310.19140625 103.46875 C303.72853535 99.72853535 303.72853535 99.72853535 301 97 C294.15203441 97.38836842 287.62563224 99.25481571 281 100.9375 C271.34739495 103.33239532 261.91117429 105.14329641 252 106 C251.814375 107.35351562 251.814375 107.35351562 251.625 108.734375 C249.76936474 118.43006922 242.28734417 127.01100206 234.58203125 132.82421875 C232.11151384 134.38351193 229.62501202 135.71950633 227 137 C225.824375 137.61875 225.824375 137.61875 224.625 138.25 C213.92357597 143.06564081 199.73728321 142.84181318 188.8125 138.875 C186.84762753 137.97411977 184.90612835 137.01930552 183 136 C182.18402344 135.56558594 181.36804688 135.13117188 180.52734375 134.68359375 C170.70876973 128.77223958 163.59730973 119.86423691 160 109 C160 108.01 160 107.02 160 106 C159.01882202 105.93304932 159.01882202 105.93304932 158.01782227 105.86474609 C150.85084381 105.30384662 143.96077336 104.13480157 136.9375 102.625 C135.92623047 102.41617188 134.91496094 102.20734375 133.87304688 101.9921875 C128.20050414 100.7941231 122.732069 99.37939555 117.25610352 97.46630859 C113.68725682 96.72867228 110.98478119 97.406208 107.89453125 99.26953125 C107.20746094 99.77871094 106.52039063 100.28789062 105.8125 100.8125 C94.14249059 108.94436585 81.86116997 110.26084745 68 109 C63.29059451 107.90413032 59.25578749 106.2757899 55 104 C53.77603516 103.34837891 53.77603516 103.34837891 52.52734375 102.68359375 C42.50440419 96.6491996 36.00009041 87.85968321 32 77 C31.62746094 76.1234375 31.25492188 75.246875 30.87109375 74.34375 C29.86581536 70.48492353 29.9205527 67.1222846 29.97802734 63.15722656 C30.17398548 54.0100886 30.17398548 54.0100886 26.9609375 45.6875 C24.41423746 43.28698516 21.74539035 41.16698467 19 39 C16.40433702 35.82864522 14.20699318 32.4494486 12 29 C11.48824219 28.25621094 10.97648437 27.51242187 10.44921875 26.74609375 C5.87773329 19.76483301 0 8.54310378 0 0 Z " fill="#F3B359" transform="translate(50,347)"/>
<path d="M0 0 C2.26187413 1.66337135 4.26290102 3.40111247 6.2734375 5.359375 C6.97984375 6.03871094 7.68625 6.71804687 8.4140625 7.41796875 C18.29608355 17.68429062 21.92453393 30.26613329 21.71484375 44.2734375 C20.88390722 55.07300752 15.76131259 65.6557998 8.2734375 73.359375 C7.60570312 74.06578125 6.93796875 74.7721875 6.25 75.5 C0.62691582 80.98098458 -5.36612418 83.79663129 -12.7265625 86.359375 C-13.69078125 86.72546875 -14.655 87.0915625 -15.6484375 87.46875 C-27.05791654 90.76996982 -39.02935594 88.05490883 -49.4765625 83.0390625 C-61.94950725 76.08007198 -69.88774826 65.20454351 -74.03125 51.625 C-76.96646286 37.83939352 -74.02909627 24.38290835 -66.4140625 12.63671875 C-50.43547589 -8.92697568 -22.67395921 -13.64335655 0 0 Z " fill="#FDFEFE" transform="translate(282.7265625,159.640625)"/>
<path d="M0 0 C1.66216553 0.09087891 1.66216553 0.09087891 3.35791016 0.18359375 C7.53625891 0.41103046 11.71486303 0.63345308 15.89355469 0.85449219 C17.68952455 0.95016595 19.48542603 1.04713363 21.28125 1.14550781 C38.74204585 2.10039509 55.9191759 1.95621978 73.375 1 C75.1900862 0.90330789 77.00519031 0.80695152 78.8203125 0.7109375 C83.21375736 0.47781949 87.60693637 0.24019077 92 0 C90.27380621 11.09533773 83.51590717 20.08412173 74.58203125 26.82421875 C72.11151384 28.38351193 69.62501202 29.71950633 67 31 C66.21625 31.4125 65.4325 31.825 64.625 32.25 C53.92357597 37.06564081 39.73728321 36.84181318 28.8125 32.875 C26.84762753 31.97411977 24.90612835 31.01930552 23 30 C22.18402344 29.56558594 21.36804688 29.13117188 20.52734375 28.68359375 C10.70876973 22.77223958 3.59730973 13.86423691 0 3 C0 2.01 0 1.02 0 0 Z " fill="#334D5A" transform="translate(210,453)"/>
<path d="M0 0 C0.99 0.495 0.99 0.495 2 1 C2.5412241 13.06328391 2.82555025 23.10606651 -3 34 C-3.65162109 35.22396484 -3.65162109 35.22396484 -4.31640625 36.47265625 C-10.3508004 46.49559581 -19.14031679 52.99990959 -30 57 C-30.89847656 57.36480469 -31.79695313 57.72960937 -32.72265625 58.10546875 C-43.55029939 61.06080877 -57.09301503 60.26006042 -67 55 C-67.91523438 54.51789063 -68.83046875 54.03578125 -69.7734375 53.5390625 C-74.06489417 51.11666432 -77.21690792 49.13895745 -80 45 C-74.01816368 42.46715039 -68.0325628 39.99843576 -61.9375 37.75 C-39.21976392 29.0501707 -17.7270761 16.78913556 0 0 Z " fill="#334D5A" transform="translate(430,397)"/>
<path d="M0 0 C4.31371032 1.42750269 7.05297224 3.56289773 10.4375 6.5625 C16.88042803 12.10008209 23.73403537 16.62184017 31 21 C31.59200195 21.36448242 32.18400391 21.72896484 32.79394531 22.10449219 C48.17797717 31.52108219 65.05464172 37.96867157 82 44 C74.41730017 52.29357794 64.60588288 57.62202896 53.3046875 58.421875 C42.97788535 58.84102226 34.27503494 57.95984138 25 53 C24.18402344 52.56558594 23.36804688 52.13117188 22.52734375 51.68359375 C12.50440419 45.6491996 6.00009041 36.85968321 2 26 C1.63003906 25.11570312 1.26007813 24.23140625 0.87890625 23.3203125 C-0.3387384 18.72032158 -0.21279058 14.3589384 -0.125 9.625 C-0.11597656 8.69816406 -0.10695313 7.77132813 -0.09765625 6.81640625 C-0.07422937 4.54399923 -0.04142748 2.2721382 0 0 Z " fill="#324D5A" transform="translate(80,398)"/>
<path d="M0 0 C4.9981495 2.67142473 8.27030829 5.90467487 10.0625 11.28125 C10.43076224 16.89724916 10.27806007 20.45790989 7.0625 25.28125 C3.13016191 29.25656446 -0.08209849 31.15958433 -5.75 31.53125 C-10.46892223 31.44482285 -13.95192669 30.24535765 -17.3828125 26.8515625 C-21.20774286 22.45835677 -22.25490764 19.14920689 -22.1484375 13.3359375 C-21.66258058 8.60333116 -19.42007414 5.50084191 -15.9375 2.46875 C-11.12938619 -1.03716632 -5.66514319 -2.10158538 0 0 Z " fill="#36505E" transform="translate(261.9375,184.71875)"/>
</svg>
